inDegrees=no
num_controls=7
num_derivatives=13
num_iterations=142
num_multipliers=7
num_parameters=0
num_slacks=7
num_states=26
objective=0.517120
objective_accelerations=0.038477
objective_balance=0.002150
objective_effort=0.042648
objective_height=0.422159
objective_ligament=0.011685
solver_duration=1875.636307
status=Solve_Succeeded
success=true
DataType=double
version=3
OpenSimVersion=4.5
endheader
time	/jointset/ground_pelvis/pelvis_tilt/value	/jointset/ground_pelvis/pelvis_tx/value	/jointset/ground_pelvis/pelvis_ty/value	/jointset/hip_l/hip_flexion_l/value	/jointset/hip_l/hip_adduction_l/value	/jointset/hip_l/hip_rotation_l/value	/jointset/back/lumbar_extension/value	/jointset/patellofemoral_l/patellar_flexion_l/value	/jointset/knee_l/knee_flexion_l/value	/jointset/knee_l/knee_adduction_l/value	/jointset/knee_l/knee_rotation_l/value	/jointset/ankle_l/ankle_angle_l/value	/jointset/subtalar_l/subtalar_angle_l/value	/jointset/ground_pelvis/pelvis_tilt/speed	/jointset/ground_pelvis/pelvis_tx/speed	/jointset/ground_pelvis/pelvis_ty/speed	/jointset/hip_l/hip_flexion_l/speed	/jointset/hip_l/hip_adduction_l/speed	/jointset/hip_l/hip_rotation_l/speed	/jointset/back/lumbar_extension/speed	/jointset/patellofemoral_l/patellar_flexion_l/speed	/jointset/knee_l/knee_flexion_l/speed	/jointset/knee_l/knee_adduction_l/speed	/jointset/knee_l/knee_rotation_l/speed	/jointset/ankle_l/ankle_angle_l/speed	/jointset/subtalar_l/subtalar_angle_l/speed	/forceset/tau_hip_flexion_l	/forceset/tau_hip_adduction_l	/forceset/tau_hip_rotation_l	/forceset/tau_knee_flexion_l	/forceset/tau_ankle_angle_l	/forceset/tau_subtalar_angle_l	/forceset/tau_lumbar_extension	lambda_cid13_p0	lambda_cid13_p1	lambda_cid13_p2	lambda_cid13_p3	lambda_cid13_p4	lambda_cid13_p5	lambda_cid14_p0	/jointset/ground_pelvis/pelvis_tilt/accel	/jointset/ground_pelvis/pelvis_tx/accel	/jointset/ground_pelvis/pelvis_ty/accel	/jointset/hip_l/hip_flexion_l/accel	/jointset/hip_l/hip_adduction_l/accel	/jointset/hip_l/hip_rotation_l/accel	/jointset/back/lumbar_extension/accel	/jointset/patellofemoral_l/patellar_flexion_l/accel	/jointset/knee_l/knee_flexion_l/accel	/jointset/knee_l/knee_adduction_l/accel	/jointset/knee_l/knee_rotation_l/accel	/jointset/ankle_l/ankle_angle_l/accel	/jointset/subtalar_l/subtalar_angle_l/accel	gamma_cid13_p0	gamma_cid13_p1	gamma_cid13_p2	gamma_cid13_p3	gamma_cid13_p4	gamma_cid13_p5	gamma_cid14_p0
1	-0.1468623545232069	-0.08541703150554035	0.7342468419529551	1.22257738787868	-0.3282447623056793	-0.008029796178475811	-0.9599268183226918	1.148522901905346	1.148522901904665	-0.08049054119738405	-0.1745258221724442	0.1510212243267242	0.01463339578166661	0.1064154399030143	0.02634226005889842	0.0655291273742884	-0.2901304340036068	0.0006499082727293706	-0.0628870773758517	-0.002154210951972666	-0.1633434829763442	-0.16334348297633	0.0003987491888329098	-4.592347925725867e-05	0.01209701451722775	0.00617058874859569	-0.3892540340892875	0.01893864546578905	-0.005223785822146821	-0.2923737193747056	0.09510155383490654	0.04360360705832135	0.4302959227211542	-19.27669687805424	-15.7040072157757	2.211733943227099	5.525837665892922	-783.33868274986	-71.37455415425084	-2.051171159523684	0.9887652839070271	0.1756643975673522	1.201900817470358	-4.479390000076026	-0.002920329136294132	-1.379136522021918	0.3293880166099403	-4.052458989628255	-4.05245898962817	-0.1987673629252431	-0.01020589664422819	-0.8282673523263721	-0.2859520477575651	-9.303816442048052e-09	-1.07873805075155e-08	3.552833163854824e-08	4.089568817157278e-09	-2.186594437480565e-08	4.650318241223463e-08	-1.008100507357191e-08
1.01	-0.1457491166338376	-0.08514475159869755	0.7349620643740081	1.219452808476867	-0.3282378097745971	-0.008727789579811584	-0.9599310066355924	1.146687140385179	1.146687140384871	-0.08049537410253298	-0.174526139158692	0.1511009537947792	0.01468156448412279	0.1162417220934141	0.02812324253821531	0.07751015548008171	-0.3347961813884007	0.0007475253953963036	-0.07670797082465511	0.001350869102303368	-0.203811289734398	-0.2038112897343802	-0.001366410364463279	-1.649712836773311e-05	0.003848556304205424	0.003470884281857368	-0.3888816893650045	0.01914563736012245	-0.0052561232825156	-0.2919877163719038	0.0947886402626867	0.04373651998287058	0.4303534092994692	-19.36097372762561	-15.7597600625841	2.235226042593152	5.404034475211295	-783.2815080731268	-71.46229830343562	-2.092188728184066	0.9809960249879645	0.1807454718911594	1.195417885857037	-4.461779376374633	0.01714074479763482	-1.383033180166777	0.3662161098615917	-4.044309188434715	-4.044309188434214	-0.1655596659198103	0.009674606162121869	-0.8231848976716896	-0.2608222847755022	-1.509638655014976e-08	-1.828562402539951e-08	4.764024028250498e-08	1.050767188296897e-08	-2.852195715058618e-08	5.20219954011498e-08	-1.312958159651534e-08
1.02	-0.1445373286548881	-0.08485437580730611	0.7357969398918638	1.215881249147467	-0.3282296734699222	-0.009563885400407939	-0.9598991145259765	1.144446627263524	1.144446627263587	-0.08051789248609233	-0.1745261303403902	0.1510981887123276	0.0147029676141829	0.1261254578190747	0.02996143696862554	0.08945974673479799	-0.379526419520937	0.0008866629912415859	-0.09050756122774789	0.00506187355758449	-0.2442938032740829	-0.244293803274062	-0.00313834649327987	1.923743078493013e-05	-0.004401895584078122	0.0008174742693774091	-0.3885093446407209	0.01935262925445409	-0.005288460742872947	-0.2916017133691024	0.09447572669046599	0.04386943290741729	0.430410895877785	-19.45619328413636	-15.81327689752245	2.257996131653277	5.319963629412124	-783.3715011752603	-71.54252501546542	-2.142783875679066	1.000255990959203	0.1871067877860172	1.19561344725495	-4.49228814962447	0.005383765499376624	-1.374875912879789	0.3705728968109531	-4.055400345954458	-4.055400345954504	-0.2001226780293225	-0.008944254991598771	-0.8286660873786185	-0.2766931569058923	-1.949864513910042e-08	-2.753401431110773e-08	5.941518501412329e-08	1.339429214222801e-08	-3.312600129126989e-08	5.648838004292052e-08	-1.647086641493962e-08
1.03	-0.1432270007366856	-0.08454514144057805	0.7367510784244811	1.211862591654837	-0.3282199402969788	-0.01053778192984004	-0.9598272787922746	1.141801368778106	1.141801368777811	-0.08055821562092155	-0.1745257429135504	0.1510131353214722	0.01469814982103989	0.1358917688271452	0.03191432030229979	0.1013553952641225	-0.4241646888536082	0.001065517529818487	-0.1042632759610212	0.009519830578441611	-0.2847455743845639	-0.2847455743845243	-0.004931191954612046	5.474216058086356e-05	-0.01258646344028031	-0.001766453196959704	-0.3891913551556037	0.01966269089535489	-0.005328482521356727	-0.2908271488245119	0.09423331629707048	0.04413051939479225	0.4318016844161498	-19.54636049802438	-15.93211924713844	2.301204160584725	4.849300592855203	-784.0711946554414	-71.66838867638958	-2.203262177588448	0.957563429903071	0.2037149612025099	1.184648307494148	-4.443540492826015	0.0249659421713262	-1.374667390361916	0.5155907139835181	-4.038213596559483	-4.038213596556669	-0.1696136348055684	0.009288358184851355	-0.8100069180142566	-0.2470578205615975	-2.388671687581483e-08	-3.680026323730396e-08	7.118669133847285e-08	1.624487686264466e-08	-3.770910697649341e-08	6.094402561992447e-08	-1.981513805270555e-08
1.04	-0.1418204607535681	-0.08421551106950438	0.7378237949927361	1.207398762635334	-0.3282082526498226	-0.01164898523396818	-0.9597044267665089	1.138751962960991	1.138751962960336	-0.08061661684128804	-0.1745251023351691	0.1508469052954	0.01466792969742074	0.1453678708021	0.03404063783775076	0.1131753538623597	-0.4685607248957823	0.001277557833775008	-0.1179689161667275	0.01526513196971474	-0.3251232696136278	-0.3251232696135701	-0.006753963600760634	6.986773916321894e-05	-0.02063722262741219	-0.004262991825856089	-0.3898733656704863	0.01997275253625384	-0.005368504299829076	-0.2900525842799219	0.09399090590367412	0.04439160588216457	0.4331924729545152	-19.64762946392746	-16.04876467180202	2.343772873379575	4.414737146820549	-784.9216523478018	-71.78741537087832	-2.273957542640248	0.942214184336076	0.2217936281413565	1.180475461037487	-4.44384149152505	0.0120209185752998	-1.36486100736638	0.6280417708941398	-4.040585169671012	-4.040585169671203	-0.2061079149926046	-0.01302008523431544	-0.8019043535645596	-0.2592153894177481	-2.607490671679408e-08	-4.495289787272484e-08	7.970998498062213e-08	1.606850127108121e-08	-4.09848187480959e-08	6.173696528530936e-08	-2.211160641405532e-08
1.05	-0.1403204328434638	-0.08386380394780088	0.7390142709240278	1.202492204910478	-0.3281942611003886	-0.01289689667267034	-0.9595183361682429	1.13529925423486	1.135299254234516	-0.08069344500372216	-0.17452439660008	0.1506007459524539	0.01461316864160027	0.1546050245616593	0.03632428015359171	0.1249007909654219	-0.5127056899988921	0.001530489757876341	-0.1315990126090081	0.02210521269208272	-0.3653955251420738	-0.3653955251420475	-0.008614420208475627	7.122723045404475e-05	-0.02858089088250134	-0.006672828860575518	-0.3897073628287345	0.02027928666479248	-0.005416736080193329	-0.2891955642689336	0.0938458763542354	0.04463087594609647	0.4337313885583934	-19.67374598120405	-16.16957206436402	2.387551305117849	4.023164577209069	-785.0004336759783	-71.90951717346067	-2.355270139259363	0.9095608447585372	0.235176737667719	1.165712743741914	-4.393057762340186	0.0333867310349992	-1.359953019596778	0.7348249741688645	-4.017098275907448	-4.017098275912018	-0.1764416197178056	0.006726124073685825	-0.7885380372264182	-0.22941089539561	-2.819435024853162e-08	-5.307073206155901e-08	8.813177197645267e-08	1.579753316976841e-08	-4.421967445989774e-08	6.241544539095618e-08	-2.437533092301708e-08
1.06	-0.1387290144211654	-0.0834885549620665	0.7403214282081105	1.197145550786066	-0.3281774487513719	-0.01428068288718406	-0.9592592780125002	1.131444512447148	1.131444512447115	-0.08078896314944463	-0.174523674838525	0.1502755619318077	0.01453480060845331	0.1636459732409263	0.03874901064392448	0.1365116244205331	-0.5565800048074512	0.00184171775027609	-0.1451438713288041	0.02985864346487939	-0.405529881929562	-0.4055298819295657	-0.01049196025846527	7.307303226098678e-05	-0.0364421581674037	-0.008984387291157948	-0.3895413599869798	0.02058582079332946	-0.005464967860545062	-0.2883385442579456	0.09370084680479547	0.04487014601002579	0.4342703041622747	-19.7109384043397	-16.28831745782068	2.430860880732948	3.665371621223026	-785.2309294409243	-72.02632600094812	-2.447610790829671	0.902973168277595	0.2500112630397187	1.157554731447249	-4.38971143261487	0.02368013223498183	-1.347813462869466	0.8107117809798726	-4.013005421479441	-4.013005421479366	-0.2095246034475348	-0.01292282313109415	-0.7854241595272043	-0.2395596685903502	-3.06674132965995e-08	-6.182911139843987e-08	9.423682842387796e-08	1.63118308255458e-08	-4.770585922125271e-08	6.22783201278305e-08	-2.644231458174062e-08
1.07	-0.1370481946787252	-0.08308833577545384	0.7417440679908408	1.191361619605536	-0.328157237756983	-0.01579940365983232	-0.958918076994843	1.127189192966434	1.127189192966864	-0.0809034249362421	-0.1745229424588863	0.1498721673840247	0.01443379865650452	0.1724809803637513	0.04132011665008867	0.1479918370696895	-0.600148060942442	0.00221178940095788	-0.1585823778166088	0.03854013416849549	-0.4455033891813606	-0.4455033891813378	-0.01240386913841934	7.310061142169501e-05	-0.04422344136966382	-0.01119788777291555	-0.3890995813985337	0.0208907481353811	-0.005519055020951149	-0.2873140651644948	0.09361085923551316	0.04515835025200715	0.434601590933287	-19.70578799926039	-16.43984811709082	2.484102451982528	3.239576675496844	-785.1226700767655	-72.18643174982067	-2.551457405418402	0.8682128133739471	0.2644571465663718	1.139569982701139	-4.331630866247187	0.04536364040830828	-1.33921047168722	0.9206538303279461	-3.984923893394163	-3.984923893390233	-0.1825623968138253	0.006442751032330261	-0.7724880319941189	-0.2095280890397033	-3.315928589340835e-08	-7.062156228574877e-08	1.002186545229838e-07	1.686789793648757e-08	-5.120541254907327e-08	6.209781160040841e-08	-2.84988333016217e-08
1.08	-0.1352801351992391	-0.08266164615334717	0.7432807729902731	1.185143752231195	-0.3281329874543025	-0.01745197774334995	-0.9584853038470942	1.122535058309929	1.122535058310822	-0.08103711348514774	-0.1745222143629369	0.1493913584779352	0.01431120512952392	0.1810939206501361	0.04404309774271828	0.1593246677608936	-0.6433672435696726	0.002649579408581341	-0.171914533502464	0.0481730694831295	-0.4852929170877237	-0.4852929170876747	-0.01433731268015301	7.221629428945817e-05	-0.05192502982867223	-0.01330270229752287	-0.3886578028100876	0.02119567547743091	-0.00557314218134495	-0.2862895860710443	0.09352087166623009	0.04544655449398594	0.4349328777042996	-19.71173862045805	-16.58942996642632	2.537027528541355	2.84538033180637	-785.1677868534648	-72.34295819409023	-2.667304926039421	0.8585598009895369	0.2803862803328015	1.128078339856776	-4.319936731062802	0.03722380362331525	-1.326543302479579	1.001000703183448	-3.976209552392358	-3.976209552392368	-0.2138315358034563	-0.01310520238968447	-0.7694852108768621	-0.2178224771602959	-3.473693357816955e-08	-7.834675836878536e-08	1.025620438914207e-07	1.689897396217288e-08	-5.387470622471189e-08	6.022345563908753e-08	-2.979740621040213e-08
